<svg width="64" height="48" viewBox="0 0 64 48" fill="none" xmlns="http://www.w3.org/2000/svg">
  <!-- Chip body -->
  <rect x="4" y="8" width="56" height="32" rx="2" fill="#1e293b" stroke="#475569" stroke-width="1"/>
  
  <!-- Chip pins/contacts -->
  <rect x="0" y="12" width="4" height="2" fill="#64748b"/>
  <rect x="0" y="16" width="4" height="2" fill="#64748b"/>
  <rect x="0" y="20" width="4" height="2" fill="#64748b"/>
  <rect x="0" y="24" width="4" height="2" fill="#64748b"/>
  <rect x="0" y="28" width="4" height="2" fill="#64748b"/>
  <rect x="0" y="32" width="4" height="2" fill="#64748b"/>
  
  <rect x="60" y="12" width="4" height="2" fill="#64748b"/>
  <rect x="60" y="16" width="4" height="2" fill="#64748b"/>
  <rect x="60" y="20" width="4" height="2" fill="#64748b"/>
  <rect x="60" y="24" width="4" height="2" fill="#64748b"/>
  <rect x="60" y="28" width="4" height="2" fill="#64748b"/>
  <rect x="60" y="32" width="4" height="2" fill="#64748b"/>
  
  <!-- Chip label -->
  <text x="32" y="20" text-anchor="middle" fill="#94a3b8" font-family="monospace" font-size="6">ESP32</text>
  <text x="32" y="28" text-anchor="middle" fill="#94a3b8" font-family="monospace" font-size="6">C3</text>
  
  <!-- Chip details -->
  <circle cx="12" cy="12" r="1" fill="#3b82f6"/>
  <rect x="48" y="34" width="8" height="4" rx="1" fill="#374151"/>
</svg>
