<svg width="24" height="24" viewBox="0 0 24 24" fill="currentColor" xmlns="http://www.w3.org/2000/svg">
  <path d="M19.321 5.562a5.124 5.124 0 0 1-.443-.258 6.228 6.228 0 0 1-1.137-.966c-.849-.849-1.294-1.98-1.294-3.338h-3.239v14.19c0 1.457-1.183 2.64-2.64 2.64s-2.64-1.183-2.64-2.64 1.183-2.64 2.64-2.64c.273 0 .536.042.784.12V9.431c-.248-.035-.502-.053-.76-.053-3.273 0-5.927 2.654-5.927 5.927s2.654 5.927 5.927 5.927 5.927-2.654 5.927-5.927V8.818a9.454 9.454 0 0 0 5.562 1.786V7.348c-1.048 0-2.025-.337-2.817-.926-.792-.589-1.294-1.4-1.294-2.317V5.562h-.686z"/>
</svg>
